# xmcd CD database file
#
# Track frame offsets:
#	150
#	13296
#	29452
#	43070
#	57553
#	69383
#	89358
#	104657
#	126216
#	140165
#	161620
#	178869
#	201015
#	218880
#	244825
#	266566
#
# Disc length: 3694 seconds
#
# Revision: 0
# Processed by: cddbd v1.5PL3 Copyright (c) Steve Scherf et al.
# Submitted via: CDex 1.50
#
DISCID=fa0e6c10
DTITLE=Charlie Musselwhite - In My Time
DYEAR=1994
DGENRE=Blues
TTITLE0=Stingaree 
TTITLE1=Brownsville Blues
TTITLE2=Ain't It Time
TTITLE3=The Big Boat
TTITLE4=Leaving Blues
TTITLE5=When It Rains It Pours
TTITLE6=Casual Friend
TTITLE7=If I Should Have Bad Luck
TTITLE8=Watson's Excellent Adventure
TTITLE9=Please Don't Think I'm Nosy
TTITLE10=Midnight Mama
TTITLE11=Hear Me Talkin'
TTITLE12=Blues, Why Do You Worry Me
TTITLE13=Movin' And Groovin'
TTITLE14=Revelation
TTITLE15=Bedside Of A Neighbor
EXTD=YEAR: 1994
EXTT0=
EXTT1=
EXTT2=
EXTT3=
EXTT4=
EXTT5=
EXTT6=
EXTT7=
EXTT8=
EXTT9=
EXTT10=
EXTT11=
EXTT12=
EXTT13=
EXTT14=
EXTT15=
PLAYORDER=
